<svg fill="#000000" xmlns="http://www.w3.org/2000/svg"  viewBox="0 0 50 50" width="50px" height="50px"><path d="M 15.216797 13 C 13.837797 13 12.555219 13.710859 11.824219 14.880859 L 8.8164062 19.691406 L 6.9453125 17.537109 C 6.1314532 16.601109 5.0289776 16.035041 3.8710938 15.871094 C 2.7132098 15.707146 1.4988484 15.946194 0.45703125 16.619141 A 1.0001 1.0001 0 1 0 1.5429688 18.298828 C 2.8033345 17.484716 4.4512655 17.71761 5.4355469 18.849609 L 7.3554688 21.058594 L 7.3125 21.097656 L 4.4355469 21.509766 C 2.4645469 21.791766 1 23.47875 1 25.46875 L 1 32 C 1 33.105 1.895 34 3 34 L 5 34 C 5 36.762 7.238 39 10 39 C 12.762 39 15 36.762 15 34 L 35 34 C 35 36.762 37.238 39 40 39 C 42.762 39 45 36.762 45 34 L 47 34 C 48.105 34 49 33.105 49 32 L 49 26.388672 C 49 24.433672 47.586203 22.764359 45.658203 22.443359 L 37 21 L 32.199219 14.599609 C 31.444219 13.592609 30.259 13 29 13 L 15.216797 13 z"/></svg>