<svg fill="#000000" xmlns="http://www.w3.org/2000/svg"  viewBox="0 0 50 50" width="50px" height="50px"><path d="M 6 2 L 6 48 L 36.152344 48 C 36.167969 48.007813 36.183594 48.023438 36.199219 48.03125 C 37.097656 48.621094 37.800781 49.015625 38.300781 49.511719 L 38.902344 50 L 39.5 49.507813 C 40 49.113281 40.800781 48.621094 41.597656 48.03125 C 45 45.867188 50 42.714844 50 37.300781 C 50 34.015625 47.363281 31.277344 44 31.027344 L 44 2 Z M 13 14 L 17 14 L 17 16 L 13 16 Z M 20 14 L 37 14 L 37 16 L 20 16 Z M 13 20 L 17 20 L 17 22 L 13 22 Z M 20 20 L 37 20 L 37 22 L 20 22 Z M 13 26 L 17 26 L 17 28 L 13 28 Z M 20 26 L 37 26 L 37 28 L 20 28 Z M 13 32 L 17 32 L 17 34 L 13 34 Z M 20 32 L 31.003906 32 C 30.183594 32.511719 29.492188 33.195313 28.980469 34 L 20 34 Z M 34.5 32.96875 C 36 32.96875 37.300781 33.6875 38.199219 34.96875 L 39 36 L 39.800781 34.96875 C 40.601563 33.789063 42 32.96875 43.5 32.96875 C 46 32.96875 48 34.9375 48 37.300781 C 48 41.632813 43.800781 44.386719 40.699219 46.359375 C 40 46.75 39.5 47.144531 39 47.441406 C 38.5 47.046875 38 46.75 37.300781 46.359375 C 34.199219 44.386719 30 41.632813 30 37.300781 C 30 34.9375 32 32.96875 34.5 32.96875 Z"/></svg>